# xmcd CD database file
# Copyright (C) 1993-1998 Ti Kan
# 
# Track frame offsets:
#     187
#     17407
#     35410
#     49827
#     64427
#     81117
#     95490
#     110372
#     123112
#     139930
#     152255
#     167462
# 
# Disc length: 2483 seconds
# 
# Revision: 1
# Processed by: cddbd v1.4b41PL1 Copyright (c) Steve Scherf et al.
# Submitted via: DiscPlay 4.0.4
# 
DISCID=8e09b10c
DTITLE=John Denver - Spirit
DYEAR=1900
DGENRE=
TTITLE0=Come And Let Me Look In Your Eyes
TTITLE1=Eli's Song
TTITLE2=Wrangell Mountain Song
TTITLE3=Hitchhiker
TTITLE4=In The Grand Way
TTITLE5=Polka Dots And Moonbeams
TTITLE6=It Makes Me Giggle
TTITLE7=Baby, You Look Good To Me Tonight
TTITLE8=Like A Sad Song
TTITLE9=San Antonio Rose
TTITLE10=Pegasus
TTITLE11=The Wings That Fly Us Home
EXTD=
EXTT0=
EXTT1=
EXTT2=
EXTT3=
EXTT4=
EXTT5=
EXTT6=
EXTT7=
EXTT8=
EXTT9=
EXTT10=
EXTT11=
PLAYORDER=
